<?xml version="1.0" encoding="UTF-8"?>
<svg id="Layer_1" xmlns="http://www.w3.org/2000/svg" xmlns:xlink="http://www.w3.org/1999/xlink" version="1.1" viewBox="0 0 256 256">
    <!-- Generator: Adobe Illustrator 29.2.1, SVG Export Plug-In . SVG Version: 2.1.0 Build 116)  -->
    <defs>
        <style>
            .st0 {
            fill: url(#linear-gradient);
            }
        </style>
        <linearGradient id="linear-gradient" x1=".2" y1="128" x2="255.8" y2="128" gradientUnits="userSpaceOnUse">
            <stop offset="0" stop-color="#8b5cf6"/>
            <stop offset="1" stop-color="#3b82f6"/>
        </linearGradient>
    </defs>
    <path class="st0" d="M103.2,140.5c-.3-2.3-2.5-4-4.8-3.6-2.3.3-4,2.5-3.6,4.8,4.5,33.2-7.5,66.8-32.1,89.8-1.7,1.6-1.8,4.3-.2,6,.8.9,2,1.3,3.1,1.3s2.1-.4,2.9-1.2c26.6-24.9,39.6-61.2,34.7-97.1Z"/>
    <path class="st0" d="M41.4,145.5c0-.2,0-.4-.2-.6-.9-4.4-1.4-8.9-1.6-13.4,0-2.4-2.1-4.2-4.4-4.1-2.4,0-4.2,2.1-4.1,4.4.2,5.1.8,10.2,1.8,15.3,0,.2,0,.4.2.6,2.8,14.9-2.6,30.1-14.2,39.9-1.8,1.5-2,4.2-.5,6,.8,1,2,1.5,3.3,1.5s2-.3,2.8-1c14.1-11.9,20.6-30.6,16.9-48.7Z"/>
    <path class="st0" d="M65.4,179.4c-2.2-.9-4.7.2-5.5,2.4-4.6,11.8-12.1,22.2-21.9,30.2-1.8,1.5-2.1,4.2-.6,6,.8,1,2.1,1.6,3.3,1.6s1.9-.3,2.7-1c10.9-8.9,19.3-20.6,24.4-33.7.9-2.2-.2-4.7-2.4-5.5Z"/>
    <path class="st0" d="M25.8,58.7c.8.6,1.6.8,2.5.8,1.3,0,2.6-.6,3.4-1.8,17.6-24.1,43.4-40.6,72.7-46.6,26-5.2,52.3-1.9,76,9.8,2.1,1,4.7.2,5.7-1.9,1-2.1.2-4.7-1.9-5.7C158.8.9,130.6-2.8,102.7,2.9c-31.4,6.3-59,24-77.9,49.9-1.4,1.9-1,4.6.9,6Z"/>
    <path class="st0" d="M11.2,151.6c0-.1,0-.2-.1-.3-5.3-26.6-1.6-53.4,10.8-77.5,1.1-2.1.2-4.7-1.8-5.7-2.1-1.1-4.7-.2-5.7,1.9C1,95.8-3,124.7,2.8,153.3c0,.2.1.3.2.4.3,1.7.7,3.3,1.1,5,.5,1.9,2.2,3.2,4.1,3.2s.7,0,1-.1c2.3-.6,3.7-2.9,3.1-5.2-.4-1.7-.8-3.4-1.1-5.1Z"/>
    <path class="st0" d="M108.8,33.1c-39.5,8-69.4,38.7-76.3,78.4-.4,2.3,1.2,4.5,3.5,4.9,2.3.4,4.5-1.2,4.9-3.5,6.3-36.2,33.6-64.2,69.6-71.5,47.8-9.6,94.4,21.4,104.1,69.1,0,.1,0,.3,0,.4.8,3.9,1.4,7.7,2,11.4.3,2.1,2.1,3.6,4.2,3.6s.4,0,.6,0c2.3-.3,3.9-2.5,3.6-4.8-.6-4-1.3-8.1-2.1-12.2,0-.1,0-.3-.1-.4-10.7-52.1-61.8-85.9-114-75.4Z"/>
    <path class="st0" d="M162.5,121.1c-1.9-9.2-7.2-17.2-15-22.4-7.8-5.2-17.2-7-26.4-5.2-13.8,2.8-24.6,13.5-27.5,27.3-.5,2.3,1,4.6,3.3,5,2.3.5,4.6-1,5-3.3,2.2-10.5,10.4-18.6,20.8-20.7,7-1.4,14.1,0,20,3.9,5.8,3.9,9.8,9.7,11.3,16.5,0,.2,0,.3,0,.5,2.2,10.7,3.3,21.6,3.3,32.4,0,2.4,1.9,4.3,4.3,4.3h0c2.4,0,4.3-1.9,4.3-4.3,0-11.2-1.2-22.5-3.4-33.6,0-.2,0-.4,0-.5Z"/>
    <path class="st0" d="M132.2,127.2c-.5-2.3-2.7-3.8-5-3.3-2.3.5-3.8,2.7-3.3,5,8.4,41.6-2.9,83.7-30.9,115.6-1.6,1.8-1.4,4.5.4,6,.8.7,1.8,1.1,2.8,1.1s2.4-.5,3.2-1.4c29.8-33.9,41.8-78.7,32.9-122.9Z"/>
    <path class="st0" d="M253.2,102.8c0-.1-.1-.2-.1-.4-6.6-32.1-24.9-60.1-51.7-78.9-1.9-1.4-4.6-.9-5.9,1-1.4,1.9-.9,4.6,1,5.9,25.1,17.6,42.3,43.9,48.4,74,0,.1,0,.2.1.3,1.7,8.5,2.5,17.1,2.3,25.6,0,2.4,1.8,4.3,4.2,4.3h0c2.3,0,4.2-1.9,4.3-4.2.2-9.3-.7-18.6-2.5-27.8Z"/>
    <path class="st0" d="M192.7,115c-3.5-17.3-13.5-32.2-28.2-42-14.7-9.8-32.3-13.2-49.6-9.7-35.7,7.2-58.9,42.1-51.7,77.8,0,.3.1.5.2.7,1.4,7.1,1.7,14.3.9,21.5-.3,2.3,1.4,4.4,3.8,4.7,2.3.2,4.4-1.4,4.7-3.8.9-8.2.5-16.6-1.2-24.8,0-.2-.1-.5-.2-.7-5.8-30.8,14.3-60.8,45.2-67,15.1-3,30.4,0,43.2,8.5,12.7,8.5,21.4,21.3,24.5,36.3,0,0,0,.2,0,.3,4.7,23.5,5.2,47.3,1.3,70.7-.4,2.3,1.2,4.5,3.5,4.9.2,0,.5,0,.7,0,2,0,3.9-1.5,4.2-3.6,4-24.4,3.6-49.1-1.3-73.5,0,0,0-.2,0-.3Z"/>
    <path class="st0" d="M222.7,136.9c-2.3.1-4.1,2.2-4,4.5,1.5,24.4-.9,48.8-7.2,72.5-.6,2.3.7,4.6,3,5.2.4,0,.7.1,1.1.1,1.9,0,3.6-1.3,4.1-3.2,6.5-24.6,9-49.9,7.5-75.2-.1-2.3-2.1-4.1-4.5-4Z"/>
    <path class="st0" d="M186.8,203.2c-2.3-.6-4.6.7-5.2,3-3.2,12.1-7.7,24-13.2,35.2-1,2.1-.1,4.7,2,5.7.6.3,1.2.4,1.9.4,1.6,0,3.1-.9,3.8-2.4,5.7-11.8,10.4-24.1,13.7-36.8.6-2.3-.7-4.6-3-5.2Z"/>
    <path class="st0" d="M161.1,170.6c-2.3-.3-4.5,1.4-4.7,3.7-3,26.6-12.7,52.5-27.9,74.7-1.3,1.9-.8,4.6,1.1,5.9.7.5,1.6.7,2.4.7,1.4,0,2.7-.6,3.5-1.9,16-23.4,26.2-50.6,29.4-78.6.3-2.3-1.4-4.5-3.7-4.7Z"/>
</svg>